<svg
   id="svg2"
   width="512"
   height="512"
   viewBox="0 0 512 512">
   <g>
      <path
         d="M 127.69573,401.25 C 117.57598,384.37924 51.617332,269.3284 50.414028,266.44848 48.704767,262.35765 48.563367,251.58067 50.157529,246.89922 51.223963,243.76751 64.125108,221.04301 112.54948,137 l 18.14984,-31.5 50.15034,-0.25925 c 33.64736,-0.17394 50.15034,0.077 50.15034,0.76249 0,0.56196 -19.35543,34.56055 -43.01208,75.55242 -38.65396,66.97902 -42.89385,74.75429 -41.84531,76.73752 0.64172,1.21375 19.77216,34.46394 42.51208,73.88931 C 211.39461,371.60786 230,404.57036 230,405.43249 230,406.83469 224.78748,407 180.5724,407 h -49.42759 z m 97.96045,0.5 c -0.75387,-1.7875 -19.02933,-33.85 -40.61214,-71.25 -21.58282,-37.4 -39.83529,-69.125 -40.56106,-70.5 -3.88537,-7.36105 -49.766563,-87.04269 -49.976532,-86.79401 -1.685125,1.99579 -41.482713,72.20826 -42.337363,74.69323 -1.755059,5.103 -1.400267,13.99496 0.747079,18.72368 1.029733,2.26759 19.292941,34.33009 40.584908,71.25 L 132.21374,405 h 47.40655 47.40655 z m -40.1656,-220.63143 c 22.32837,-38.70979 40.68983,-70.88479 40.80323,-71.5 0.1134,-0.61521 0.65619,-1.44918 1.20619,-1.85326 0.55,-0.40408 -20.7125,-0.74158 -47.25,-0.75 -32.27285,-0.0102 -48.25,0.32387 -48.25,1.00898 0,0.56336 -7.58251,14.17586 -16.85002,30.25 -9.26752,16.07414 -17.397481,30.26462 -18.066593,31.53439 -1.056947,2.00577 -0.82717,2.92421 1.751288,7 C 100.46699,179.38891 110.2199,196.125 120.5078,214 c 23.30093,40.48487 22.58014,39.31271 23.56577,38.3232 0.45098,-0.45276 19.08864,-32.49484 41.41701,-71.20463 z M 282,405.47652 c 0,-0.84818 18.60557,-33.81488 41.3457,-73.25933 22.74014,-39.44445 41.86126,-72.69287 42.49139,-73.88536 1.02061,-1.93146 -3.54797,-10.30742 -41.8457,-76.71932 C 300.34613,140.60937 281,106.59339 281,106.02143 c 0,-0.70953 15.9354,-0.95756 50.15603,-0.78068 l 50.15603,0.25925 25.40484,44 c 55.13458,95.49055 55.20593,95.61945 56.33308,101.76619 1.81431,9.89406 0.30056,13.4119 -23.33713,54.23381 -11.78356,20.35 -29.76749,51.4 -39.9643,69 l -18.53965,32 -49.60445,0.25934 C 287.46365,406.99011 282,406.84881 282,405.47652 Z m 116.01126,-32.0781 c 15.49684,-26.88254 18.06943,-31.9224 17.22759,-33.75 -1.39086,-3.0195 -45.26549,-78.97412 -46.17793,-79.94202 -0.81342,-0.86287 -5.62136,7.15225 -35.56772,59.2936 -4.2644,7.425 -8.5439,14.85 -9.51,16.5 -0.9661,1.65 -4.33921,7.5 -7.49581,13 -3.15659,5.5 -6.53159,11.35 -7.5,13 -2.03398,3.46556 -12.29799,21.33666 -15.21989,26.5 -1.08934,1.925 -2.3113,3.95 -2.71546,4.5 -0.40416,0.55 -2.18923,3.5875 -3.96683,6.75 l -3.23199,5.75 h 47.97042 47.97042 z M 438.01701,303.5 c 11.11552,-19.25 20.83395,-36.74408 21.59651,-38.87573 1.91254,-5.34627 1.69926,-12.3388 -0.52581,-17.23852 -1.0276,-2.26283 -19.08591,-33.97497 -40.12956,-70.47142 -21.04366,-36.49644 -38.47049,-67.15753 -38.7263,-68.13575 -0.43776,-1.67397 -3.29623,-1.77768 -48.59848,-1.76327 -26.47335,0.008 -47.68337,0.34592 -47.13337,0.75 0.55,0.40408 1.082,1.18469 1.18222,1.73469 0.10022,0.55 18.77522,33.29214 41.5,72.76032 22.72478,39.46817 47.68166,82.89317 55.45974,96.5 27.01549,47.26039 34.60686,60.32412 34.88517,60.03271 0.15392,-0.16117 9.37437,-16.04303 20.48988,-35.29303 z"
         style="display:inline;fill:none;fill-opacity:1;stroke:#000000;stroke-width:1;stroke-dasharray:none" />
   </g>
</svg>